<svg xmlns="http://www.w3.org/2000/svg" viewBox="0 0 1200 800" role="img" aria-labelledby="title description">
  <title id="title">Station platform at dusk</title>
  <desc id="description">An abstract violet railway platform beneath a coral evening sky.</desc>
  <defs>
    <linearGradient id="sky" x1="0" y1="0" x2="0" y2="1">
      <stop offset="0" stop-color="#ef806f"/>
      <stop offset="0.55" stop-color="#c35f82"/>
      <stop offset="1" stop-color="#4d315f"/>
    </linearGradient>
    <linearGradient id="platform" x1="0" y1="0" x2="1" y2="0">
      <stop offset="0" stop-color="#211c31"/>
      <stop offset="1" stop-color="#60405f"/>
    </linearGradient>
  </defs>
  <rect width="1200" height="800" fill="url(#sky)"/>
  <circle cx="905" cy="205" r="86" fill="#ffd18a" opacity="0.9"/>
  <path d="M0 490 1200 405V800H0Z" fill="#30243e"/>
  <path d="M0 590 1200 475V800H0Z" fill="url(#platform)"/>
  <path d="m0 665 1200-126v28L0 701Z" fill="#f2b46d"/>
  <path d="m0 748 1200-142v25L0 782Z" fill="#171523"/>
  <g fill="#241b32">
    <rect x="105" y="220" width="26" height="390"/>
    <rect x="510" y="185" width="26" height="358"/>
    <rect x="930" y="130" width="26" height="350"/>
    <path d="M70 220h900v24H70z"/>
  </g>
  <g fill="#ffe5aa">
    <rect x="82" y="248" width="72" height="18" rx="9"/>
    <rect x="487" y="213" width="72" height="18" rx="9"/>
    <rect x="907" y="158" width="72" height="18" rx="9"/>
  </g>
  <path d="M680 490h165l-24-76H704Z" fill="#171523"/>
  <path d="M716 414v-67h92v67" fill="none" stroke="#171523" stroke-width="18"/>
  <g fill="#211827">
    <circle cx="365" cy="430" r="34"/>
    <path d="M330 466h70l22 151h-114Z"/>
  </g>
</svg>
